<?xml version="1.0" standalone="no"?>
<!DOCTYPE svg PUBLIC "-//W3C//DTD SVG 20010904//EN"
 "http://www.w3.org/TR/2001/REC-SVG-20010904/DTD/svg10.dtd">
<svg version="1.0" xmlns="http://www.w3.org/2000/svg"
 width="260.000000pt" height="260.000000pt" viewBox="0 0 260.000000 260.000000"
 preserveAspectRatio="xMidYMid meet">
<metadata>
Created by potrace 1.11, written by Peter Selinger 2001-2013
</metadata>
<g transform="translate(0.000000,260.000000) scale(0.100000,-0.100000)"
fill="#000000" stroke="none">
<path d="M0 1300 l0 -1300 1300 0 1300 0 0 1300 0 1300 -1300 0 -1300 0 0
-1300z m1252 1270 c38 -12 81 -34 105 -55 l42 -35 58 29 c119 60 231 63 339
12 101 -49 169 -141 194 -264 8 -38 17 -60 28 -64 106 -34 208 -119 248 -207
50 -110 40 -256 -27 -360 l-28 -45 20 -47 c29 -64 23 -188 -10 -257 -88 -180
-300 -273 -468 -205 l-60 24 -47 -42 c-68 -62 -140 -87 -251 -88 -80 -1 -97 2
-148 28 -33 16 -83 53 -112 83 l-54 54 -64 -7 c-80 -8 -183 9 -253 42 -62 29
-138 107 -166 172 -25 54 -35 179 -20 233 9 35 9 37 -37 70 -151 112 -185 343
-75 506 54 78 154 138 253 150 47 5 49 6 70 59 42 100 132 180 241 215 73 24
144 23 222 -1z m423 -1709 c85 -39 129 -107 129 -196 -1 -68 -17 -105 -66
-152 -87 -84 -209 -83 -293 2 -86 86 -86 215 2 302 62 63 150 80 228 44z m211
-477 c126 -59 153 -209 54 -298 -70 -63 -166 -69 -242 -15 -64 46 -90 168 -49
235 32 52 109 101 164 103 10 1 43 -11 73 -25z"/>
<path d="M1069 2507 c-126 -35 -206 -120 -233 -249 -6 -27 -9 -28 -63 -28
-120 0 -207 -54 -263 -164 -30 -59 -34 -77 -34 -139 0 -58 5 -82 27 -125 30
-57 93 -124 140 -149 23 -11 28 -19 23 -36 -25 -86 -30 -129 -18 -183 39 -185
219 -283 422 -229 31 8 56 11 58 5 9 -26 67 -94 104 -120 126 -91 297 -70 400
50 l42 48 45 -23 c70 -35 151 -49 214 -36 196 41 296 237 216 420 l-19 44 26
34 c48 64 68 122 68 203 0 86 -21 143 -74 204 -38 43 -114 84 -174 94 l-41 8
-7 61 c-12 109 -66 203 -141 247 -97 57 -197 54 -324 -10 l-71 -36 -54 41
c-92 69 -181 92 -269 68z"/>
<path d="M1533 791 c-49 -23 -76 -68 -76 -127 0 -81 61 -140 145 -138 100 3
162 124 108 211 -39 65 -108 86 -177 54z"/>
<path d="M1765 326 c-43 -19 -66 -49 -72 -94 -10 -76 43 -132 128 -132 33 0
47 6 75 34 30 30 34 41 34 84 0 38 -5 55 -25 76 -42 45 -87 55 -140 32z"/>
</g>
</svg>
