<svg id="Cor_principal" data-name="Cor principal" xmlns="http://www.w3.org/2000/svg" width="689" height="1000" viewBox="0 0 689 1000">
  <defs>
    <style>
      .cls-1 {
        fill: #fff;
        opacity: 0.2;
      }

      .cls-2 {
        fill: #fff;
      }

      .cls-3 {
        opacity: 0;
        cursor: pointer;
      }

      #grupo:hover .cls-1 {
        opacity: 0.5;
        fill: #ffd700;
      }
 
      #grupo:hover .cls-2 {
        <!-- fill: #ffd700; -->
      }
    </style>
  </defs>
  <g id="grupo">
    <path id="Balão" class="cls-1" d="M118.392,335.922C68.9,484.951,214.949,501.942,279.482,493.2,298.89,538.35,410,585.437,471.625,495.146c85.883,57.281,228.05-7.282,166.913-147.573,47.551-40.777,50.947-193.689-67.93-200C581.283,106.8,520.146-44.175,376.524,60.194,337.222-9.709,197,.485,170.794,116.505,66.959,98.058-12.615,252.913,118.392,335.922ZM445.424,594.175c33.765,0,61.137,27.819,61.137,62.136s-27.372,62.136-61.137,62.136-61.137-27.82-61.137-62.136S411.659,594.175,445.424,594.175Zm73.752,166.99c28.4,0,51.432,23.907,51.432,53.4s-23.027,53.4-51.432,53.4-51.432-23.907-51.432-53.4S490.771,761.165,519.176,761.165Zm61.137,139.806a44.66,44.66,0,1,1-44.64,44.66A44.65,44.65,0,0,1,580.313,900.971Z"/>
    <path class="cls-2" d="M163.031,100.971c-152.783,7.807-158.7,190.84-62.107,236.893-27.983,81.182,25.1,188.332,170.794,163.107,60.339,90.382,166.713,62.738,207.671,11.65,109.463,66.508,236.224-68.585,174.676-165.048,50.255-56.346,49.881-175.071-71.811-211.651C577.667,36.9,479.29-25.013,378.465,40.777,309.057-31.6,188.307,5.608,163.031,100.971Zm21.349,25.243C182.721,52.437,291.45-21.845,374.583,69.9,491.059-10.526,564.139,74.6,560.9,157.282,661.019,165.21,693.529,280.1,626.893,343.689c61.643,98.674-47.066,210.842-155.268,137.864-53.373,81.877-150.739,67.638-188.262-9.708-113.9,43.309-197.481-52.1-153.326-141.748C-4.205,257.929,80.222,101.133,184.38,126.214Z"/>
    <path class="cls-2" d="M341.589,561.165c-33,43.689-26.929-1.942-62.107,21.359C308.352,537.864,304.691,581.386,341.589,561.165Zm65.988,31.068"/>
    <path id="JOAO" class="cls-2" d="M1.844,718.593a47,47,0,0,0,34.323,14.093q19.67,0,34.323-14.093a47.584,47.584,0,0,0,14.232-34.5V586.71H60.236V684.1a23.569,23.569,0,0,1-7.116,17.247,22.988,22.988,0,0,1-16.952,6.942,23.079,23.079,0,0,1-16.952-7.152ZM120.717,608.165Q99.371,629.62,99.37,659.7q0,30.289,21.347,51.533,21.136,21.456,51.276,21.455t51.276-21.455q21.553-21.03,21.557-51.533,0-30.076-21.557-51.533-21.141-21.455-51.276-21.455-30.348,0-51.276,21.455h0Zm85.39,17.248A46.893,46.893,0,0,1,220.339,659.7a47.585,47.585,0,0,1-14.232,34.5,46.766,46.766,0,0,1-34.114,14.093,47.455,47.455,0,0,1-34.323-14.093,47.939,47.939,0,0,1-14.023-34.5,47.237,47.237,0,0,1,14.023-34.285q14.441-14.3,34.323-14.3a46.425,46.425,0,0,1,34.114,14.3h0Zm101.926,15.775,21.348,42.91h-42.7Zm45.625,91.5h27L308.033,586.71,235.41,732.686h27l12.348-24.4h66.763Zm39.135-124.521Q371.445,629.62,371.445,659.7q0,30.289,21.348,51.533,21.137,21.456,51.276,21.455t51.275-21.455Q516.9,690.2,516.9,659.7q0-30.076-21.557-51.533Q474.2,586.71,444.069,586.71q-30.349,0-51.276,21.455h0Zm85.39,17.248A46.9,46.9,0,0,1,492.414,659.7a47.588,47.588,0,0,1-14.231,34.5,46.767,46.767,0,0,1-34.114,14.093,47.456,47.456,0,0,1-34.324-14.093,47.942,47.942,0,0,1-14.022-34.5,47.24,47.24,0,0,1,14.022-34.285q14.441-14.3,34.324-14.3a46.427,46.427,0,0,1,34.114,14.3h0Z"/>
    <path id="PAULO" class="cls-2" d="M112.594,768.542a20.47,20.47,0,0,1,14.839,6.248,20.093,20.093,0,0,1,6.153,14.883A19.88,19.88,0,0,1,127.25,804.3a20.464,20.464,0,0,1-14.917,6.062L69.72,810.1l0.261-41.819ZM112.2,831.36a41.454,41.454,0,0,0,30.015-11.942Q154.784,807,154.893,789.806a40.18,40.18,0,0,0-12.305-29.767,41.147,41.147,0,0,0-29.863-12.5l-63.737-.4L48.206,872.782l21.123,0.131L69.589,831.1Zm82.884-36.415,18.505,37.048-37.47-.234Zm39.552,79,23.694,0.148L195.379,748.057,130.86,873.3l23.695,0.148,10.968-20.932,58.593,0.365ZM360.874,749.089l-21.307-.133-0.456,73.319a29.65,29.65,0,0,1-9.689,22.026,30.411,30.411,0,0,1-22.466,9.093,31.015,31.015,0,0,1-22.535-9.373,29.826,29.826,0,0,1-9.047-22.144l0.457-73.318-21.123-.132-0.457,73.319q-0.133,21.546,15.2,37.208a54,54,0,0,0,75.125.468,50.217,50.217,0,0,0,15.843-37.014Zm12.072,125.718,84.86,0.529,0.13-21-63.736-.4L394.852,749.3l-21.123-.132ZM475,768.267q-18.851,18.348-19.012,44.236-0.162,26.07,18.459,44.47,18.435,18.582,44.886,18.746t45.116-18.184q19.029-17.983,19.2-44.236,0.16-25.885-18.643-44.471-18.44-18.58-44.886-18.746-26.635-.166-45.116,18.185h0Zm74.848,15.312a39.971,39.971,0,0,1,12.306,29.586q-0.106,17.2-12.675,29.612a41.459,41.459,0,0,1-30.015,11.943A42.075,42.075,0,0,1,489.42,842.4,40.848,40.848,0,0,1,477.3,812.636a40.261,40.261,0,0,1,12.49-29.432,41.756,41.756,0,0,1,30.2-12.122,41.147,41.147,0,0,1,29.863,12.5h0Z"/>
    <path id="RIBEIRO" class="cls-2" d="M159.806,915.418a16.807,16.807,0,0,1,5.167,12.3,16.978,16.978,0,0,1-5.167,12.457,16.808,16.808,0,0,1-12.308,5.165l-35.253-.152v-34.94H147.5a16.816,16.816,0,0,1,12.308,5.165h0Zm22.793,82.64L160.87,960.232a35.147,35.147,0,0,0-13.372-67.6H94.77V998.058h17.475V962.967h29.783l20.361,35.091H182.6Zm10.635,0h17.474V892.631H193.234V998.058Zm90.258-86.818a12.748,12.748,0,0,1,7.066,7.064,13.238,13.238,0,0,1,.987,5.013,13.606,13.606,0,0,1-.987,5.165,12.723,12.723,0,0,1-2.812,4.254,13.731,13.731,0,0,1-4.254,2.886,12.381,12.381,0,0,1-5.015,1.064h-39.66V910.253h39.66A13.24,13.24,0,0,1,283.492,911.24Zm25.68,12.077a29.569,29.569,0,0,0-2.431-11.849,30.763,30.763,0,0,0-16.487-16.406,29.76,29.76,0,0,0-11.777-2.431H221.343V998.058h57.134a29.549,29.549,0,0,0,11.853-2.43,30.97,30.97,0,0,0,16.411-16.407,30.573,30.573,0,0,0-6.838-33.876,29.766,29.766,0,0,0,9.269-22.028h0Zm-70.355,57.119v-26.28h39.66a12.977,12.977,0,0,1,9.345,3.949,13.4,13.4,0,0,1,2.736,4.254,13.224,13.224,0,0,1,0,10.026,12.74,12.74,0,0,1-7.066,7.064,13.183,13.183,0,0,1-5.015.987h-39.66Zm80.989-87.805V998.058h70.2V980.436H337.281v-26.28h52.728v-17.47H337.281V910.253h52.728V892.631h-70.2Zm80.837,105.427h17.475V892.631H400.643V998.058Zm93.145-82.64a16.806,16.806,0,0,1,5.166,12.3,17.637,17.637,0,0,1-17.474,17.622l-35.254-.152v-34.94H481.48a16.816,16.816,0,0,1,12.308,5.165h0Zm22.793,82.64-21.729-37.826a35.147,35.147,0,0,0-13.372-67.6H428.752V998.058h17.474V962.967h29.783l20.362,35.091h20.21Zm26.134-89.932a52.642,52.642,0,1,0,74.457,74.437q15.649-15.189,15.651-37.218,0-21.723-15.651-37.219a50.453,50.453,0,0,0-37.229-15.5q-22.034,0-37.228,15.5h0Zm62,12.457a33.778,33.778,0,0,1,10.333,24.762,35.138,35.138,0,1,1-35.1-35.092,33.8,33.8,0,0,1,24.769,10.33h0Z"/>
    <rect class="cls-3" y="-1" width="689" height="1001"/>
  </g>
</svg>
